HIERARCHY
ROOT Hips
{
	OFFSET 0.00 0.00 0.00
	CHANNELS 6 Xposition Yposition Zposition Xrotation Yrotation Zrotation
	JOINT LeftUpLeg
	{
		OFFSET 2.63333 0.00000 0.00000
		CHANNELS 3 Xrotation Yrotation Zrotation
		JOINT LeftLeg
		{
			OFFSET 0.00000 -16.49536 0.00000
			CHANNELS 3 Xrotation Yrotation Zrotation
			JOINT LeftFoot
			{
				OFFSET 0.00000 -14.46025 0.00000
				CHANNELS 3 Xrotation Yrotation Zrotation
				JOINT LeftToeBase
				{
					OFFSET 0.00000 -1.61074 6.01136
					CHANNELS 3 Xrotation Yrotation Zrotation
					End Site
					{
						OFFSET 0.00000 0.00000 2.95275
					}
				}
			}
		}
	}
	JOINT RightUpLeg
	{
		OFFSET -2.63333 0.00000 0.00000
		CHANNELS 3 Xrotation Yrotation Zrotation
		JOINT RightLeg
		{
			OFFSET 0.00000 -16.49536 0.00000
			CHANNELS 3 Xrotation Yrotation Zrotation
			JOINT RightFoot
			{
				OFFSET 0.00000 -14.46025 0.00000
				CHANNELS 3 Xrotation Yrotation Zrotation
				JOINT RightToeBase
				{
					OFFSET 0.00000 -1.61074 6.01136
					CHANNELS 3 Xrotation Yrotation Zrotation
					End Site
					{
						OFFSET 0.00000 0.00000 2.95275
					}
				}
			}
		}
	}
	JOINT Spine
	{
		OFFSET 0.00000 0.03937 0.00000
		CHANNELS 3 Xrotation Yrotation Zrotation
		JOINT Spine1
		{
			OFFSET 0.00000 8.73652 0.00000
			CHANNELS 3 Xrotation Yrotation Zrotation
			JOINT Neck
			{
				OFFSET 0.00000 8.59038 0.00000
				CHANNELS 3 Xrotation Yrotation Zrotation
				JOINT Head
				{
					OFFSET 0.00000 7.06117 0.00000
					CHANNELS 3 Xrotation Yrotation Zrotation
					End Site
					{
						OFFSET 0.00000 4.52755 0.00000
					}
				}
			}
			JOINT LeftShoulder
			{
				OFFSET 0.00000 8.59038 0.00000
				CHANNELS 3 Xrotation Yrotation Zrotation
				JOINT LeftArm
				{
					OFFSET 6.99892 -0.00003 0.00000
					CHANNELS 3 Xrotation Yrotation Zrotation
					JOINT LeftForeArm
					{
						OFFSET 10.51892 -0.00004 0.00000
						CHANNELS 3 Xrotation Yrotation Zrotation
						JOINT LeftHand
						{
							OFFSET 8.73923 -0.00003 0.00000
							CHANNELS 3 Xrotation Yrotation Zrotation
							JOINT LeftHandThumb
							{
								OFFSET 0.00000 0.00000 0.00000
								CHANNELS 3 Xrotation Yrotation Zrotation
								End Site
								{
									OFFSET 0.00000 0.00000 3.93700
								}
							}
							JOINT L_Wrist_End
							{
								OFFSET 3.93700 -0.00001 0.00000
								CHANNELS 3 Xrotation Yrotation Zrotation
							}
						}
					}
				}
			}
			JOINT RightShoulder
			{
				OFFSET 0.00000 8.59038 0.00000
				CHANNELS 3 Xrotation Yrotation Zrotation
				JOINT RightArm
				{
					OFFSET -6.99892 -0.00003 0.00000
					CHANNELS 3 Xrotation Yrotation Zrotation
					JOINT RightForeArm
					{
						OFFSET -10.51892 -0.00004 0.00000
						CHANNELS 3 Xrotation Yrotation Zrotation
						JOINT RightHand
						{
							OFFSET -8.73923 -0.00003 0.00000
							CHANNELS 3 Xrotation Yrotation Zrotation
							JOINT RightHandThumb
							{
								OFFSET 0.00000 0.00000 0.00000
								CHANNELS 3 Xrotation Yrotation Zrotation
								End Site
								{
									OFFSET 0.00000 0.00000 3.93700
								}
							}
							JOINT R_Wrist_End
							{
								OFFSET -5.39369 -0.00002 0.00000
								CHANNELS 3 Xrotation Yrotation Zrotation
							}
						}
					}
				}
			}
		}
	}
}
MOTION
Frames: 15
Frame Time: 0.066664
 4.7319 34.3161 -20.3367 28.4398 -0.4078 76.2603 -16.0446 36.4032 30.2666 123.8925 0.0000 0.0000 41.9025 -27.0247 5.1052 -11.6770 0.0000 0.0000 -83.6670 10.4363 -46.3291 21.5846 0.0000 0.0000 -6.3270 -16.3083 -10.9110 2.1390 0.0000 0.0000 15.6809 -3.5801 0.1275 -10.2490 -1.7058 -1.1147 8.3635 -5.3206 -9.5469 -18.7518 44.3402 -22.4919 11.0739 10.5361 5.0725 9.9312 -48.2086 -46.9522 -179.9972 -85.6998 -179.9970 22.5011 18.3914 -11.6894 -0.0000 0.0000 -0.0000 -0.0000 0.0000 -0.0000 8.7639 -17.6630 -19.3139 8.1661 17.6348 59.3748 -0.0012 80.0779 0.0010 13.7161 -19.6455 6.9313 -0.0000 0.0000 -0.0000 -0.0000 0.0000 -0.0000
 4.2321 33.2175 -22.6811 25.6097 3.9155 66.3694 -24.6421 45.5740 23.1997 122.1866 0.0000 0.0000 36.2517 -25.5722 0.1716 -11.7424 0.0000 -0.0000 -89.0567 2.7020 -44.7356 29.2505 -0.0000 0.0000 -11.7454 -16.9249 -15.3172 1.3799 -0.0000 0.0000 15.9416 -1.2028 0.6871 -8.6581 1.0021 -1.7623 7.3675 -5.1302 -9.1642 -16.8103 39.7779 -20.4623 11.3121 10.2802 5.7075 6.9724 -43.1914 -54.3588 -0.0785 -89.8464 -0.0783 15.8231 8.7929 -8.4356 -0.0000 0.0000 -0.0000 -0.0000 0.0000 -0.0000 8.6143 -14.0121 -16.9734 -9.0194 20.5361 65.2483 -0.0009 76.6968 0.0007 9.3175 -16.0194 -0.8977 -0.0000 0.0000 -0.0000 -0.0000 0.0000 -0.0000
 3.0258 32.3113 -24.7294 21.7642 6.6711 53.5714 -27.8463 43.7778 22.9773 106.3402 -0.0000 0.0000 25.9654 -29.8314 3.4797 -12.7850 -0.0000 0.0000 -83.7613 -5.0281 -41.6333 31.6911 -0.0000 0.0000 -16.0857 -26.2061 -20.3248 0.9557 -0.0000 0.0000 15.5999 -0.4210 0.9822 -7.7191 1.2556 -0.7662 7.4367 -3.0221 -9.2285 -14.2727 37.5364 -18.7731 12.0644 11.5012 5.8696 2.6605 -37.0035 -68.3183 -0.0024 -84.9062 -0.0022 13.1627 6.4045 -5.3722 -0.0000 -0.0000 0.0000 -0.0000 -0.0000 0.0000 8.6280 -11.8325 -16.5322 -19.2440 29.3907 69.7655 -0.0009 76.3770 0.0007 8.1780 -14.2452 -1.3764 -0.0000 -0.0000 0.0000 -0.0000 -0.0000 0.0000
 1.5713 31.7318 -26.3485 13.6984 12.7283 41.1765 -23.9398 37.3111 19.3949 84.5677 -0.0000 0.0000 19.2524 -26.0298 5.7359 -14.1374 0.0000 -0.0000 -76.0925 -12.8183 -42.3430 35.3621 -0.0000 0.0000 -14.4031 -24.9798 -19.1201 0.5820 0.0000 -0.0000 15.1543 0.3666 0.8643 -7.5189 1.2036 2.0835 7.2163 -4.1409 -6.5179 -12.0000 34.2237 -16.7466 11.0538 13.0619 8.2447 -0.1975 -38.0437 -80.8401 -0.0015 -82.0116 -0.0013 10.3444 4.6887 -2.5279 -0.0000 0.0000 -0.0000 -0.0000 0.0000 -0.0000 8.2275 -12.5797 -15.1234 -15.4863 28.8396 70.3563 -0.0013 80.6457 0.0011 3.6038 -11.8327 -2.5951 -0.0000 0.0000 -0.0000 -0.0000 0.0000 -0.0000
 0.0074 31.0297 -28.0311 10.0638 17.6704 28.4021 -17.1008 30.1485 14.0548 57.3457 -0.0000 0.0000 16.0307 -36.7772 2.4480 -13.6979 0.0000 0.0000 -68.9942 -19.1812 -36.2511 38.6749 -0.0000 0.0000 -8.5537 -16.4632 -15.8618 1.0176 -0.0000 -0.0000 14.5849 1.2915 0.5899 -7.4873 1.7199 4.0749 6.7874 -4.2730 -3.0063 -12.4124 31.7655 -12.2493 10.6425 16.0844 13.0859 -0.0431 -39.9102 -87.8211 -0.0022 -84.6085 -0.0020 7.4981 3.2945 -1.0352 -0.0000 0.0000 -0.0000 -0.0000 0.0000 -0.0000 8.8978 -13.1018 -12.8130 -11.7114 29.2824 72.1618 -0.0011 79.1919 0.0009 0.7652 -12.2704 -1.6939 -0.0000 0.0000 -0.0000 -0.0000 0.0000 -0.0000
 -1.7681 29.4053 -29.9014 8.5233 21.6305 13.1833 -15.8379 23.2206 16.9808 45.3251 -0.0000 0.0000 -2.9429 -15.7496 -2.1037 -25.0319 0.0000 0.0000 -74.3034 -30.8793 -34.2196 50.5730 -0.0000 0.0000 -2.1445 -5.4698 -11.0141 -0.2603 -0.0000 -0.0000 14.9183 2.2339 0.0099 -7.3697 1.8179 8.3739 5.7025 -4.2926 1.4063 -15.0140 24.5677 -6.2684 10.3483 15.2280 16.2885 0.0916 -41.3143 -86.0556 -0.0234 -89.4848 -0.0232 5.1936 1.3893 0.3124 -0.0000 -0.0000 0.0000 -0.0000 -0.0000 0.0000 9.8616 -12.6202 -8.9401 -6.5971 29.8843 72.4138 -0.0011 79.3752 0.0009 -4.7090 -9.6661 -4.4009 -0.0000 0.0000 -0.0000 -0.0000 0.0000 -0.0000
 -4.4833 27.2953 -31.7577 9.0498 26.8890 -2.7819 -30.6930 14.8213 35.7697 51.9294 -0.0000 0.0000 -21.4583 -8.1853 -5.5407 -10.8364 -0.0000 -0.0000 -82.6749 -36.2015 -36.1022 66.3680 -0.0000 0.0000 5.1528 22.1527 22.7896 -1.9871 -0.0000 0.0000 15.7720 1.1524 -1.4903 -5.6951 0.2906 12.6372 4.3722 -3.2043 6.6578 -19.9652 7.0623 2.1203 10.3492 9.8303 17.9875 -9.5785 -40.1786 -81.9286 -179.9971 -85.8181 -179.9969 4.0360 1.0367 2.5573 -0.0000 0.0000 -0.0000 -0.0000 0.0000 -0.0000 12.3603 -11.6830 -0.7025 -6.4187 29.1005 72.6816 -0.0016 82.6567 0.0014 -14.6037 -6.0019 -7.2357 -0.0000 0.0000 -0.0000 -0.0000 0.0000 -0.0000
 -6.8615 26.2725 -32.0567 6.0660 28.0296 -10.1691 -41.5423 11.6433 53.5953 54.8942 -0.0000 0.0000 -18.7692 -20.3895 -10.0692 -12.3944 0.0000 -0.0000 -81.2385 -28.4756 -33.3496 88.5772 -0.0000 0.0000 3.8390 14.4719 19.2525 -2.6793 0.0000 0.0000 15.7172 -0.9446 -1.9788 -3.3122 -0.9503 11.9497 8.9108 -0.7395 6.6901 -19.4158 -19.4996 10.3007 12.1186 5.7127 12.9015 -34.8177 -42.9637 -82.4745 -179.9984 -82.4638 -179.9982 5.1906 1.7001 1.4417 -0.0000 0.0000 -0.0000 -0.0000 0.0000 -0.0000 14.6595 -14.5972 1.6463 -4.4151 31.7844 78.9239 -179.9971 85.8630 179.9969 -18.3584 -5.5374 -14.6240 -0.0000 0.0000 -0.0000 -0.0000 0.0000 -0.0000
 -9.1357 27.0399 -30.7420 1.8270 20.3323 -11.4241 -30.3314 15.5325 58.2771 39.7898 -0.0000 0.0000 -5.7466 -12.1003 -10.2468 -12.4313 -0.0000 0.0000 -72.0346 -13.0951 -27.9807 101.2038 -0.0000 0.0000 5.9888 5.9883 10.0193 -3.0778 0.0000 -0.0000 13.7219 -3.7159 -2.4115 -3.9345 -3.4493 9.9331 11.1180 0.0525 4.0089 -8.1901 -31.9123 15.3034 9.3701 7.3081 16.2311 -39.8388 -36.8107 -95.2228 -179.9993 -74.2851 -179.9990 -6.3650 -4.6964 6.0526 -0.0000 0.0000 -0.0000 -0.0000 0.0000 -0.0000 12.6273 -18.3670 -6.3426 5.3020 38.3098 75.5753 -179.9994 69.7424 179.9992 -12.7187 -9.0363 -16.3059 -0.0000 0.0000 -0.0000 -0.0000 0.0000 -0.0000
 -11.6079 29.1933 -27.4073 -6.8152 11.0919 -9.1513 -11.1207 32.8901 56.0905 11.3129 0.0000 0.0000 29.0852 6.7357 -13.6355 -10.2828 -0.0000 -0.0000 -52.6524 -6.7775 -31.2076 96.0914 -0.0000 0.0000 10.1796 -9.7813 4.1957 -3.7916 -0.0000 -0.0000 11.4196 -3.9802 -1.6719 -3.2376 -3.4461 8.8671 14.3345 -5.0368 1.6045 -7.7469 -34.6993 14.4116 9.5409 15.7378 17.4120 -7.9944 -43.3187 -88.7477 -179.9995 -68.3606 -179.9992 -18.6106 -5.7614 -3.1518 -0.0000 0.0000 -0.0000 -0.0000 0.0000 -0.0000 9.0654 -22.9597 -15.0543 15.2521 29.9135 61.7384 -179.9997 55.2953 179.9994 -3.3940 -20.1603 -11.3275 -0.0000 0.0000 -0.0000 -0.0000 0.0000 -0.0000
 -14.3135 30.2074 -25.2470 -10.6434 5.7185 -3.5001 -12.6271 31.0193 50.0237 41.8004 -0.0000 -0.0000 20.3430 5.6869 -9.9349 -18.4158 0.0000 -0.0000 -27.3918 -0.9484 -33.1227 65.4275 -0.0000 0.0000 17.7506 -10.9854 5.9413 -2.7257 -0.0000 0.0000 10.2981 -3.9858 -0.7918 -2.9843 -2.6677 2.6037 13.3241 -11.8196 2.3862 -6.6570 -36.0895 18.5029 15.2735 18.3724 21.3385 22.9074 -41.1588 -73.9324 -179.9995 -67.9832 -179.9992 -25.1548 -6.5400 -4.6677 -0.0000 0.0000 -0.0000 -0.0000 0.0000 -0.0000 8.2271 -23.9693 -16.2117 6.7104 14.1144 31.2697 -179.9994 69.7956 179.9992 -5.4195 -22.5286 -8.8492 -0.0000 0.0000 -0.0000 -0.0000 0.0000 -0.0000
 -17.1266 29.7816 -24.0719 -11.4900 -13.4309 -0.6264 -1.2049 31.4811 35.0526 54.7617 -0.0000 0.0000 13.8480 4.2891 -13.3180 -26.4007 0.0000 0.0000 -11.2629 15.6479 -26.9708 33.0532 -0.0000 0.0000 19.9836 -15.0209 25.9954 -3.4789 0.0000 0.0000 9.0349 -0.8393 -0.6295 -4.2799 0.4975 0.9342 10.5188 -7.6432 -3.0622 -0.5705 -38.3752 17.5587 16.6221 9.8944 20.4123 18.2160 -41.6640 -73.7618 -179.9997 -58.0637 -179.9994 -23.3273 -4.4196 -2.1928 -0.0000 0.0000 -0.0000 -0.0000 0.0000 -0.0000 8.4367 -8.6041 -14.6889 -11.8993 32.9003 15.1705 -0.0001 23.4675 0.0000 -14.1509 -16.5340 -6.4697 -0.0000 -0.0000 0.0000 -0.0000 -0.0000 0.0000
 -20.2310 28.5197 -23.7135 -9.9823 -29.8712 -3.4569 7.0287 25.4142 28.6669 59.6466 -0.0000 0.0000 19.3096 5.2566 -16.8718 -25.9439 0.0000 -0.0000 -27.2169 20.9575 -15.6430 49.7362 -0.0000 0.0000 0.5227 -4.4577 21.7432 -2.4138 -0.0000 -0.0000 10.3422 -3.4844 -0.0455 -6.0825 -2.9838 1.9141 9.0763 -4.3320 0.9857 -6.2016 -24.2805 9.5387 9.1066 -1.2334 11.2619 -25.5682 -44.8377 -70.7677 -179.9997 -53.5817 -179.9994 -12.2213 -0.8924 7.4799 -0.0000 0.0000 -0.0000 -0.0000 0.0000 -0.0000 9.5401 -9.0422 -8.0510 -37.4482 30.8502 51.3768 -0.0003 57.4482 0.0002 -34.6871 -0.9673 -9.9518 -0.0000 0.0000 -0.0000 -0.0000 0.0000 -0.0000
 -22.3873 28.2707 -22.7477 -9.6264 -38.3901 -5.7678 13.3154 29.6720 26.3228 55.5558 -0.0000 0.0000 8.2561 -3.3599 -6.2885 -25.1538 0.0000 -0.0000 -31.0594 13.4551 -11.9586 52.1828 -0.0000 0.0000 -11.5635 6.1802 16.9531 1.4913 -0.0000 0.0000 11.5474 -10.5858 -3.6028 -4.7971 -12.0186 8.8055 7.9475 1.2878 0.1083 -5.7432 -14.5050 4.4585 7.9063 -12.7943 16.8151 -85.6061 -61.1352 -84.9437 -0.0003 -50.9339 -0.0001 1.2371 6.2353 2.9117 -0.0000 0.0000 -0.0000 -0.0000 0.0000 -0.0000 15.0033 -15.8141 3.3399 -9.3217 23.0629 76.7668 -0.0137 89.1216 0.0135 -48.8042 1.7162 -1.8466 -0.0000 0.0000 -0.0000 -0.0000 0.0000 -0.0000
 -23.5770 28.5578 -21.9617 -9.7922 -55.0999 -7.7134 19.8115 39.5562 17.6566 46.8779 -0.0000 0.0000 -5.8418 -8.9068 1.7375 -26.4097 0.0000 -0.0000 -36.1314 21.5710 -1.7708 53.0586 -0.0000 0.0000 -11.6073 8.9669 13.6536 -0.2054 -0.0000 0.0000 10.2013 -12.9884 -1.8235 -1.5153 -13.4699 7.2773 4.7148 8.8005 -1.7914 -9.2627 -5.0046 1.4858 4.8274 -10.3339 18.7651 -86.3912 -66.6788 -84.3685 -0.0001 -26.0434 -0.0000 -9.4550 -2.1881 0.7012 -0.0000 0.0000 -0.0000 -0.0000 0.0000 -0.0000 14.0329 -18.2431 -6.3013 12.2459 26.9128 84.1546 -179.9990 78.5484 179.9987 -51.1727 3.9578 -1.6574 -0.0000 0.0000 -0.0000 -0.0000 0.0000 -0.0000
